<svg width="188" height="199" xmlns="http://www.w3.org/2000/svg" xmlns:xlink="http://www.w3.org/1999/xlink" overflow="hidden"><defs><clipPath id="clip0"><rect x="2317" y="2181" width="188" height="199"/></clipPath></defs><g clip-path="url(#clip0)" transform="translate(-2317 -2181)"><path d="M2372 2209C2375.97 2209 2379 2205.97 2379 2202L2379 2188C2379 2184.03 2375.97 2181 2372 2181 2368.03 2181 2365 2184.03 2365 2188L2365 2202C2365 2205.97 2368.03 2209 2372 2209Z" fill="#7D7D7D" fill-rule="evenodd"/><path d="M2352.32 2249.91 2476.68 2249.91 2476.68 2324.09 2352.32 2324.09 2352.32 2249.91ZM2339 2338 2490 2338 2490 2236 2339 2236 2339 2338Z" fill="#7D7D7D" fill-rule="evenodd"/><path d="M2457 2209C2460.97 2209 2464 2205.97 2464 2202L2464 2188C2464 2184.03 2460.97 2181 2457 2181 2453.03 2181 2450 2184.03 2450 2188L2450 2202C2450 2205.97 2453.03 2209 2457 2209Z" fill="#7D7D7D" fill-rule="evenodd"/><path d="M2472.24 2195 2472.24 2201.86C2472.24 2210.77 2465.35 2217.86 2456.69 2217.86 2448.03 2217.86 2441.15 2210.77 2441.15 2201.86L2441.15 2195 2387.85 2195 2387.85 2201.86C2387.85 2210.77 2380.97 2217.86 2372.31 2217.86 2363.65 2217.86 2356.76 2210.77 2356.76 2201.86L2356.76 2195 2339 2195 2339 2227 2490 2227 2490 2195 2472.24 2195Z" fill="#7D7D7D" fill-rule="evenodd"/><text fill="#7D7D7D" font-family="Roboto,Roboto_MSFontService,sans-serif" font-weight="700" font-size="78" transform="matrix(1 0 0 1 2364.61 2314)">1Y</text></g></svg>