<svg width="208" height="199" xmlns="http://www.w3.org/2000/svg" xmlns:xlink="http://www.w3.org/1999/xlink" overflow="hidden"><defs><clipPath id="clip0"><rect x="1697" y="1907" width="208" height="199"/></clipPath></defs><g clip-path="url(#clip0)" transform="translate(-1697 -1907)"><path d="M1761.5 1935C1765.18 1935 1768 1931.97 1768 1928L1768 1914C1768 1910.03 1765.18 1907 1761.5 1907 1757.82 1907 1755 1910.03 1755 1914L1755 1928C1755 1931.97 1757.82 1935 1761.5 1935Z" fill="#7D7D7D" fill-rule="evenodd"/><path d="M1741.41 1975.77 1866.59 1975.77 1866.59 2049.23 1741.41 2049.23 1741.41 1975.77ZM1728 2063 1880 2063 1880 1962 1728 1962 1728 2063Z" fill="#7D7D7D" fill-rule="evenodd"/><path d="M1846.5 1935C1850.18 1935 1853 1931.97 1853 1928L1853 1914C1853 1910.03 1850.18 1907 1846.5 1907 1842.82 1907 1840 1910.03 1840 1914L1840 1928C1840 1931.97 1842.82 1935 1846.5 1935Z" fill="#7D7D7D" fill-rule="evenodd"/><path d="M1862.12 1921 1862.12 1927.86C1862.12 1936.77 1855.19 1943.86 1846.47 1943.86 1837.75 1943.86 1830.82 1936.77 1830.82 1927.86L1830.82 1921 1777.18 1921 1777.18 1927.86C1777.18 1936.77 1770.25 1943.86 1761.53 1943.86 1752.81 1943.86 1745.88 1936.77 1745.88 1927.86L1745.88 1921 1728 1921 1728 1953 1880 1953 1880 1921 1862.12 1921Z" fill="#7D7D7D" fill-rule="evenodd"/><text fill="#7D7D7D" font-family="Roboto,Roboto_MSFontService,sans-serif" font-weight="700" font-size="78" transform="matrix(1 0 0 1 1744.28 2040)">1W</text></g></svg>