<svg width="190" height="199" xmlns="http://www.w3.org/2000/svg" xmlns:xlink="http://www.w3.org/1999/xlink" overflow="hidden"><defs><clipPath id="clip0"><rect x="2104" y="1652" width="190" height="199"/></clipPath></defs><g clip-path="url(#clip0)" transform="translate(-2104 -1652)"><path d="M2157 1680C2160.97 1680 2164 1676.97 2164 1673L2164 1659C2164 1655.03 2160.97 1652 2157 1652 2153.03 1652 2150 1655.03 2150 1659L2150 1673C2150 1676.97 2153.03 1680 2157 1680Z" fill="#2BB673" fill-rule="evenodd"/><path d="M2136.41 1720.77 2261.59 1720.77 2261.59 1794.23 2136.41 1794.23 2136.41 1720.77ZM2123 1808 2275 1808 2275 1707 2123 1707 2123 1808Z" fill="#2BB673" fill-rule="evenodd"/><path d="M2242 1680C2245.97 1680 2249 1676.97 2249 1673L2249 1659C2249 1655.03 2245.97 1652 2242 1652 2238.03 1652 2235 1655.03 2235 1659L2235 1673C2235 1676.97 2238.03 1680 2242 1680Z" fill="#2BB673" fill-rule="evenodd"/><path d="M2257.12 1666 2257.12 1672.86C2257.12 1681.77 2250.19 1688.86 2241.47 1688.86 2232.75 1688.86 2225.82 1681.77 2225.82 1672.86L2225.82 1666 2172.18 1666 2172.18 1672.86C2172.18 1681.77 2165.25 1688.86 2156.53 1688.86 2147.81 1688.86 2140.88 1681.77 2140.88 1672.86L2140.88 1666 2123 1666 2123 1698 2275 1698 2275 1666 2257.12 1666Z" fill="#2BB673" fill-rule="evenodd"/><text fill="#2BB673" font-family="Roboto,Roboto_MSFontService,sans-serif" font-weight="700" font-size="78" transform="matrix(1 0 0 1 2151.24 1785)">1D</text></g></svg>