<svg width="96" height="96" xmlns="http://www.w3.org/2000/svg" xmlns:xlink="http://www.w3.org/1999/xlink" overflow="hidden"><defs><clipPath id="clip0"><rect x="859" y="281" width="96" height="96"/></clipPath></defs><g clip-path="url(#clip0)" transform="translate(-859 -281)"><path d="M941 364.6 921 345.6 941 326.6 941 364.6ZM876.2 367 896 348.3 897.4 347C902.8 341.9 911.3 341.9 916.7 347L918.1 348.3 937.8 367 876.2 367ZM873 326.5 893 345.5 873 364.5 873 326.5ZM887 301 927 301 927 334.3 918 342.9C911.5 337.9 902.5 337.9 896 342.9L887 334.3 887 301ZM933 303.7 933 295 919 295 907 285 895 295 881 295 881 303.8 867 317.1 867 373 947 373 947 317.1 933 303.7Z"/><path d="M907 323.3C905.2 323.3 903.8 321.8 903.8 320.1 903.8 318.3 905.3 316.9 907 316.9 908.8 316.9 910.2 318.3 910.2 320.1 910.2 321.9 908.8 323.3 907 323.3ZM907 333C909.3 333 911.5 332.4 913.5 331.4 914.3 330.9 914.6 329.9 914.2 329.1 913.7 328.3 912.7 328 911.9 328.4 910.4 329.2 908.7 329.6 907 329.6 901.7 329.6 897.3 325.2 897.4 319.9 897.4 314.6 901.8 310.2 907.1 310.2 912.4 310.2 916.8 314.5 916.8 319.9L916.8 323.1C915 323.1 913.6 321.7 913.6 319.9 913.6 316.7 911.4 314 908.3 313.4 905.2 312.8 902.1 314.5 901 317.4 899.9 320.3 901 323.7 903.7 325.3 906.4 326.9 909.9 326.4 912 324 913.2 325.4 915 326.2 916.9 326.2 918.7 326.2 920.1 324.8 920.1 323L920.1 319.8C920.1 312.6 914.3 306.8 907.1 306.8 899.9 306.8 894.1 312.6 894.1 319.8 894 327.1 899.8 332.9 907 333Z"/></g></svg>