<svg width="96" height="96" xmlns="http://www.w3.org/2000/svg" xmlns:xlink="http://www.w3.org/1999/xlink" overflow="hidden"><defs><clipPath id="clip0"><rect x="947" y="203" width="96" height="96"/></clipPath></defs><g clip-path="url(#clip0)" transform="translate(-947 -203)"><path d="M963.225 264.925C960.156 263.801 957.653 261.513 956.26 258.556 954.383 254.376 954.867 249.514 957.53 245.786 960.242 242.107 964.773 240.239 969.29 240.936L972.84 241.526 972.84 237.656C972.871 230.572 977.686 224.405 984.55 222.656 991.435 220.996 998.554 224.315 1001.71 230.656L1002.92 233.066 1005.43 232.176C1009.19 230.851 1013.35 231.433 1016.6 233.736 1019.83 236.101 1021.74 239.862 1021.75 243.866L1021.75 246.986 1025.83 246.986C1031.01 247.181 1035.06 251.539 1034.86 256.722 1034.68 261.669 1030.68 265.623 1025.73 265.756L1020.48 265.756 1007.52 265.734 1007.52 271.966 1015.17 271.986 1025.73 271.986C1034.37 271.782 1041.2 264.616 1041 255.98 1040.82 248.362 1035.17 241.982 1027.63 240.876 1026.83 235.986 1024.15 231.604 1020.15 228.676 1016.01 225.747 1010.85 224.661 1005.88 225.676 1000.99 218.132 991.881 214.489 983.14 216.586 974.602 218.763 968.213 225.865 966.95 234.586 961.294 234.758 956.025 237.501 952.64 242.036 948.62 247.622 947.888 254.928 950.72 261.2 953.604 267.383 959.649 271.484 966.46 271.88L973.8 271.88 981.52 271.901 981.52 265.689 968.52 265.666 966.72 265.666C965.582 265.594 964.46 265.365 963.385 264.986Z"/><path d="M1002.52 283.986 1002.52 259.986 1015.02 259.986 994.52 235.986 974.02 259.986 986.52 259.986 986.52 283.986 1002.52 283.986Z"/></g></svg>