<svg width="208" height="199" xmlns="http://www.w3.org/2000/svg" xmlns:xlink="http://www.w3.org/1999/xlink" overflow="hidden"><defs><clipPath id="clip0"><rect x="2024" y="2184" width="208" height="199"/></clipPath></defs><g clip-path="url(#clip0)" transform="translate(-2024 -2184)"><path d="M2086.5 2211C2090.18 2211 2093 2208.07 2093 2204.25L2093 2190.75C2093 2186.92 2090.18 2184 2086.5 2184 2082.82 2184 2080 2186.92 2080 2190.75L2080 2204.25C2080 2208.07 2082.82 2211 2086.5 2211Z" fill="#7D7D7D" fill-rule="evenodd"/><path d="M2066.41 2252.77 2191.59 2252.77 2191.59 2326.23 2066.41 2326.23 2066.41 2252.77ZM2053 2340 2205 2340 2205 2239 2053 2239 2053 2340Z" fill="#7D7D7D" fill-rule="evenodd"/><path d="M2171 2211C2174.97 2211 2178 2208.07 2178 2204.25L2178 2190.75C2178 2186.92 2174.97 2184 2171 2184 2167.03 2184 2164 2186.92 2164 2190.75L2164 2204.25C2164 2208.07 2167.03 2211 2171 2211Z" fill="#7D7D7D" fill-rule="evenodd"/><path d="M2187.12 2197 2187.12 2204.07C2187.12 2213.26 2180.19 2220.57 2171.47 2220.57 2162.75 2220.57 2155.82 2213.26 2155.82 2204.07L2155.82 2197 2102.18 2197 2102.18 2204.07C2102.18 2213.26 2095.25 2220.57 2086.53 2220.57 2077.81 2220.57 2070.88 2213.26 2070.88 2204.07L2070.88 2197 2053 2197 2053 2230 2205 2230 2205 2197 2187.12 2197Z" fill="#7D7D7D" fill-rule="evenodd"/><text fill="#7D7D7D" font-family="Roboto,Roboto_MSFontService,sans-serif" font-weight="700" font-size="78" transform="matrix(1 0 0 1 2071.67 2316)">6M</text></g></svg>