<svg width="96" height="96" xmlns="http://www.w3.org/2000/svg" xmlns:xlink="http://www.w3.org/1999/xlink" overflow="hidden"><defs><clipPath id="clip0"><rect x="576" y="210" width="96" height="96"/></clipPath></defs><g clip-path="url(#clip0)" transform="translate(-576 -210)"><path d="M599 292 599 224 624 224 624 245 649 245 649 292 599 292ZM630 226.5 642.5 239 630 239 630 226.5ZM630 218 593 218 593 298 655 298 655 240 630 218Z"/><path d="M605 255 643 255 643 259 605 259Z"/><path d="M605 247 618 247 618 251 605 251Z"/><path d="M605 263 643 263 643 267 605 267Z"/><path d="M605 271 643 271 643 275 605 275Z"/><path d="M605 279 643 279 643 283 605 283Z"/></g></svg>