<svg width="208" height="200" xmlns="http://www.w3.org/2000/svg" xmlns:xlink="http://www.w3.org/1999/xlink" overflow="hidden"><defs><clipPath id="clip0"><rect x="1710" y="2181" width="208" height="200"/></clipPath></defs><g clip-path="url(#clip0)" transform="translate(-1710 -2181)"><path d="M1775 2209C1778.97 2209 1782 2205.97 1782 2202L1782 2188C1782 2184.03 1778.97 2181 1775 2181 1771.03 2181 1768 2184.03 1768 2188L1768 2202C1768 2205.97 1771.03 2209 1775 2209Z" fill="#7D7D7D" fill-rule="evenodd"/><path d="M1754.41 2250.77 1879.59 2250.77 1879.59 2324.23 1754.41 2324.23 1754.41 2250.77ZM1741 2338 1893 2338 1893 2237 1741 2237 1741 2338Z" fill="#7D7D7D" fill-rule="evenodd"/><path d="M1860 2209C1863.97 2209 1867 2205.97 1867 2202L1867 2188C1867 2184.03 1863.97 2181 1860 2181 1856.03 2181 1853 2184.03 1853 2188L1853 2202C1853 2205.97 1856.03 2209 1860 2209Z" fill="#7D7D7D" fill-rule="evenodd"/><path d="M1875.12 2195 1875.12 2201.86C1875.12 2210.77 1868.19 2217.86 1859.47 2217.86 1850.75 2217.86 1843.82 2210.77 1843.82 2201.86L1843.82 2195 1790.18 2195 1790.18 2201.86C1790.18 2210.77 1783.25 2217.86 1774.53 2217.86 1765.81 2217.86 1758.88 2210.77 1758.88 2201.86L1758.88 2195 1741 2195 1741 2227 1893 2227 1893 2195 1875.12 2195Z" fill="#7D7D7D" fill-rule="evenodd"/><text fill="#7D7D7D" font-family="Roboto,Roboto_MSFontService,sans-serif" font-weight="700" font-size="78" transform="matrix(1 0 0 1 1757.46 2314)">1M</text></g></svg>